<?xml version="1.0" standalone="no"?>
<!DOCTYPE svg PUBLIC "-//W3C//DTD SVG 20010904//EN"
 "http://www.w3.org/TR/2001/REC-SVG-20010904/DTD/svg10.dtd">
<svg version="1.0" xmlns="http://www.w3.org/2000/svg"
 width="225.000000pt" height="225.000000pt" viewBox="0 0 225.000000 225.000000"
 preserveAspectRatio="xMidYMid meet">
<metadata>
Created by potrace 1.14, written by Peter Selinger 2001-2017
</metadata>
<g transform="translate(0.000000,225.000000) scale(0.100000,-0.100000)"
fill="#000000" stroke="none">
<path d="M1893 2147 c-34 -35 -63 -69 -63 -74 0 -6 66 -71 148 -143 l147 -132
54 58 c95 105 93 132 -16 230 -170 153 -176 154 -270 61z m187 -94 c47 -42 85
-80 85 -83 0 -3 -10 -18 -22 -34 l-23 -28 -78 71 c-111 100 -109 97 -82 126
13 14 26 25 29 25 3 0 44 -35 91 -77z"/>
<path d="M1757 1997 l-36 -44 121 -108 c67 -60 134 -120 150 -133 l29 -25 35
34 c19 18 34 36 34 41 0 8 -29 36 -196 186 l-102 92 -35 -43z"/>
<path d="M1371 1568 c-172 -193 -314 -356 -315 -363 0 -7 53 -61 119 -120 66
-59 132 -118 146 -132 l26 -24 319 356 c175 196 320 359 321 363 1 6 -282 265
-296 269 -3 1 -147 -156 -320 -349z m359 202 c16 -16 18 -25 10 -40 -17 -31
-51 -50 -70 -40 -31 17 -32 41 -3 72 32 33 37 34 63 8z m-125 -140 c9 -10 15
-25 12 -32 -3 -7 -89 -107 -192 -221 -179 -198 -189 -207 -209 -194 -11 8 -22
22 -24 31 -4 17 365 436 384 436 6 0 19 -9 29 -20z"/>
<path d="M124 1873 c-37 -7 -103 -71 -114 -111 -6 -24 -10 -310 -10 -807 0
-730 1 -772 19 -811 10 -23 36 -54 57 -70 l37 -29 656 -3 c582 -2 661 -1 698
13 51 20 89 62 103 114 6 25 9 185 8 436 l-3 397 -87 -99 -87 -98 -1 -245 c0
-225 -2 -248 -20 -277 -39 -64 -26 -63 -592 -63 -491 0 -514 1 -545 20 -72 43
-68 1 -68 720 0 627 1 646 20 679 11 18 36 42 55 53 33 17 62 18 545 15 281
-2 519 -6 530 -8 16 -3 39 16 93 76 63 70 69 81 54 90 -17 10 -1301 18 -1348
8z"/>
<path d="M342 1447 c-30 -32 -29 -87 1 -115 23 -22 29 -22 340 -22 l316 0 50
53 c27 28 59 64 71 80 l21 27 -389 0 -389 0 -21 -23z"/>
<path d="M371 1179 c-34 -14 -50 -39 -50 -79 0 -81 29 -90 304 -90 l224 0 21
73 c12 39 24 80 26 90 5 16 -11 17 -248 16 -139 0 -264 -5 -277 -10z"/>
<path d="M952 971 c-29 -103 -50 -194 -47 -203 4 -9 14 -19 23 -23 16 -6 372
133 372 145 0 6 -228 214 -274 251 -21 16 -22 14 -74 -170z m174 12 l85 -77
-50 -22 c-86 -38 -86 -38 -130 1 l-39 36 19 67 c10 37 19 68 19 69 0 11 22 -7
96 -74z"/>
<path d="M342 867 c-13 -14 -22 -36 -22 -54 0 -83 25 -93 240 -93 l172 0 29
29 c37 38 39 82 4 116 -24 25 -26 25 -213 25 -184 0 -189 -1 -210 -23z"/>
</g>
</svg>
